<svg width="1784" height="1406" viewBox="0 0 1784 1406" fill="none" xmlns="http://www.w3.org/2000/svg">
<g opacity="0.5" style="mix-blend-mode:plus-lighter">
<path d="M1671.14 523.644L1602.47 427.208L401.258 987.571L406.276 997.167L1671.14 523.644Z" fill="#2EEE34"/>
</g>
<g opacity="0.5" style="mix-blend-mode:plus-lighter">
<path d="M1748.23 765.674L1698.66 657.077L410.801 916.108L413.956 926.553L1748.23 765.674Z" fill="#2EEE34"/>
</g>
<g opacity="0.5" style="mix-blend-mode:plus-lighter">
<path d="M1633.03 460.07L1549.81 373.267L401.855 985.924L408.34 994.794L1633.03 460.07Z" fill="#2EEE34"/>
</g>
<g opacity="0.5" style="mix-blend-mode:plus-lighter">
<path d="M1479.39 329.276L1365.85 277.165L399.091 993.09L408.834 999.104L1479.39 329.276Z" fill="#2EEE34"/>
</g>
<g opacity="0.5" style="mix-blend-mode:plus-lighter">
<path d="M1532.03 359.564L1426.06 295.8L399.693 987.139L408.582 994.14L1532.03 359.564Z" fill="#2EEE34"/>
</g>
<g opacity="0.5" style="mix-blend-mode:plus-lighter">
<path d="M943.845 64.2879L821.572 72.6662L424.774 1270.32L435.956 1270.99L943.845 64.2879Z" fill="#2EEE34"/>
</g>
<g opacity="0.5" style="mix-blend-mode:plus-lighter">
<path d="M1316.92 72.6489L1202.47 31.4806L409.745 1046.28L419.634 1051.38L1316.92 72.6489Z" fill="#2EEE34"/>
</g>
</svg>
